# xmcd
#
# Track frame offsets:
# 150
# 21281
# 34172
# 56411
# 76924
# 97622
# 114315
# 134972
# 156960
# 174558
# 190176
# 204433
# 222588
#
# Disc length: 3197 seconds
#
#
# Revision: 2
# Processed by: cddbd v1.5PL3 Copyright (c) Steve Scherf et al.
# Submitted via: FreeRIP 2.60 
#
DISCID=b00c7b0d
DTITLE=Johnny Rivers - Last Train To Memphis
DYEAR=1900
DGENRE=
TTITLE0=Down At The House Of Blues
TTITLE1=Chicago Bound
TTITLE2=Closer To You
TTITLE3=Joker In The Wind
TTITLE4=Uphill Piece Of Mind
TTITLE5=Last Train To Memphis
TTITLE6=Don't Let The Rain Come Down
TTITLE7=Treat A Dog
TTITLE8=Rollin' Stone
TTITLE9=Can't Help Myself
TTITLE10=Then You Can Tell Me Goodbye
TTITLE11=Gypsy Wind
TTITLE12=Blue Suede Blues (Tribute to Carl Perkins)
EXTD=
EXTT0=
EXTT1=
EXTT2=
EXTT3=
EXTT4=
EXTT5=
EXTT6=
EXTT7=
EXTT8=
EXTT9=
EXTT10=
EXTT11=
EXTT12=
PLAYORDER=
